<?xml version="1.0" encoding="utf-8"?>
<!-- Generator: Adobe Illustrator 22.1.0, SVG Export Plug-In . SVG Version: 6.00 Build 0)  -->
<svg version="1.1" id="Layer_1" xmlns="http://www.w3.org/2000/svg" xmlns:xlink="http://www.w3.org/1999/xlink" x="0px" y="0px"
	 viewBox="0 0 16 16" style="enable-background:new 0 0 16 16;" xml:space="preserve">
<style type="text/css">
	.st0{fill:url(#SVGID_1_);}
	.st1{fill:url(#SVGID_2_);}
	.st2{fill:url(#SVGID_3_);}
	.st3{fill:url(#SVGID_4_);}
	.st4{fill:url(#SVGID_5_);}
	.st5{fill:url(#SVGID_6_);}
	.st6{fill:url(#SVGID_7_);}
	.st7{fill:url(#SVGID_8_);}
	.st8{fill:url(#SVGID_9_);}
	.st9{fill:url(#SVGID_10_);}
	.st10{fill:url(#SVGID_11_);}
	.st11{fill:url(#SVGID_12_);}
	.st12{fill:url(#SVGID_13_);}
	.st13{fill:url(#SVGID_14_);}
	.st14{fill:url(#SVGID_15_);}
	.st15{fill:url(#SVGID_16_);}
	.st16{fill:url(#SVGID_17_);}
	.st17{fill:url(#SVGID_18_);}
	.st18{fill:url(#SVGID_19_);}
	.st19{fill:url(#SVGID_20_);}
	.st20{fill:url(#SVGID_21_);}
	.st21{fill:url(#SVGID_22_);}
	.st22{fill:url(#SVGID_23_);}
	.st23{fill:url(#SVGID_24_);}
	.st24{fill:url(#SVGID_25_);}
	.st25{fill:url(#SVGID_26_);}
	.st26{fill:url(#SVGID_27_);}
	.st27{fill:url(#SVGID_28_);}
	.st28{fill:url(#SVGID_29_);}
	.st29{fill:url(#SVGID_30_);}
	.st30{fill:url(#SVGID_31_);}
	.st31{fill:url(#SVGID_32_);}
	.st32{fill:url(#SVGID_33_);}
	.st33{fill:url(#SVGID_34_);}
	.st34{fill:url(#SVGID_35_);}
	.st35{fill:url(#SVGID_36_);}
	.st36{fill:url(#SVGID_37_);}
	.st37{fill:url(#SVGID_38_);}
	.st38{fill:url(#SVGID_39_);}
	.st39{fill:url(#SVGID_40_);}
	.st40{fill:url(#SVGID_41_);}
	.st41{fill:url(#SVGID_42_);}
</style>
<g>
	
		<linearGradient id="SVGID_1_" gradientUnits="userSpaceOnUse" x1="23.2628" y1="17.9211" x2="10.4624" y2="18.4436" gradientTransform="matrix(0.9585 0.2851 -0.2851 0.9585 -4.2039 -15.3524)">
		<stop  offset="0" style="stop-color:#3853A3"/>
		<stop  offset="1" style="stop-color:#6FCBDC"/>
	</linearGradient>
	<path class="st0" d="M1.2,5.7c0-0.5,0.5-1,1-0.9c0.5,0,1,0.5,0.9,1c0,0.5-0.5,1-1,0.9C1.6,6.7,1.2,6.2,1.2,5.7z"/>
	
		<linearGradient id="SVGID_2_" gradientUnits="userSpaceOnUse" x1="23.1272" y1="14.5988" x2="10.3268" y2="15.1213" gradientTransform="matrix(0.9585 0.2851 -0.2851 0.9585 -4.2039 -15.3524)">
		<stop  offset="0" style="stop-color:#3853A3"/>
		<stop  offset="1" style="stop-color:#6FCBDC"/>
	</linearGradient>
	<path class="st1" d="M6.6,3.7c0-0.8,0.7-1.4,1.5-1.4c0.8,0,1.4,0.7,1.4,1.5c0,0.8-0.7,1.4-1.5,1.4C7.2,5.2,6.6,4.5,6.6,3.7z"/>
	
		<linearGradient id="SVGID_3_" gradientUnits="userSpaceOnUse" x1="23.2167" y1="16.7917" x2="10.4163" y2="17.3142" gradientTransform="matrix(0.9585 0.2851 -0.2851 0.9585 -4.2039 -15.3524)">
		<stop  offset="0" style="stop-color:#3853A3"/>
		<stop  offset="1" style="stop-color:#6FCBDC"/>
	</linearGradient>
	<path class="st2" d="M8.8,6.6c0-0.8,0.7-1.4,1.5-1.4c0.8,0,1.4,0.7,1.4,1.5c0,0.8-0.7,1.4-1.5,1.4C9.4,8,8.8,7.4,8.8,6.6z"/>
	
		<linearGradient id="SVGID_4_" gradientUnits="userSpaceOnUse" x1="23.1712" y1="15.6757" x2="10.3708" y2="16.1981" gradientTransform="matrix(0.9585 0.2851 -0.2851 0.9585 -4.2039 -15.3524)">
		<stop  offset="0" style="stop-color:#3853A3"/>
		<stop  offset="1" style="stop-color:#6FCBDC"/>
	</linearGradient>
	<path class="st3" d="M3.7,4c0-0.5,0.4-0.9,0.9-0.8c0.5,0,0.9,0.4,0.8,0.9c0,0.5-0.4,0.9-0.9,0.8C4.1,4.9,3.7,4.5,3.7,4z"/>
	
		<linearGradient id="SVGID_5_" gradientUnits="userSpaceOnUse" x1="23.3151" y1="19.2005" x2="10.5146" y2="19.723" gradientTransform="matrix(0.9585 0.2851 -0.2851 0.9585 -4.2039 -15.3524)">
		<stop  offset="0" style="stop-color:#3853A3"/>
		<stop  offset="1" style="stop-color:#6FCBDC"/>
	</linearGradient>
	<path class="st4" d="M10.6,9.4c0-0.5,0.4-0.9,0.9-0.8c0.5,0,0.9,0.4,0.8,0.9c0,0.5-0.4,0.9-0.9,0.8C10.9,10.2,10.5,9.8,10.6,9.4z"
		/>
	
		<linearGradient id="SVGID_6_" gradientUnits="userSpaceOnUse" x1="23.084" y1="13.5396" x2="10.2836" y2="14.062" gradientTransform="matrix(0.9585 0.2851 -0.2851 0.9585 -4.2039 -15.3524)">
		<stop  offset="0" style="stop-color:#3853A3"/>
		<stop  offset="1" style="stop-color:#6FCBDC"/>
	</linearGradient>
	<path class="st5" d="M12.2,3.9c0-0.5,0.4-0.9,0.9-0.8c0.5,0,0.9,0.4,0.8,0.9c0,0.5-0.4,0.9-0.9,0.8C12.5,4.8,12.2,4.4,12.2,3.9z"/>
	
		<linearGradient id="SVGID_7_" gradientUnits="userSpaceOnUse" x1="23.3559" y1="20.2005" x2="10.5554" y2="20.723" gradientTransform="matrix(0.9585 0.2851 -0.2851 0.9585 -4.2039 -15.3524)">
		<stop  offset="0" style="stop-color:#3853A3"/>
		<stop  offset="1" style="stop-color:#6FCBDC"/>
	</linearGradient>
	<path class="st6" d="M0.1,7.7c0-0.5,0.4-0.9,0.9-0.8c0.5,0,0.9,0.4,0.8,0.9c0,0.5-0.4,0.9-0.9,0.8C0.5,8.6,0.1,8.2,0.1,7.7z"/>
	
		<linearGradient id="SVGID_8_" gradientUnits="userSpaceOnUse" x1="23.0946" y1="13.7982" x2="10.2941" y2="14.3206" gradientTransform="matrix(0.9585 0.2851 -0.2851 0.9585 -4.2039 -15.3524)">
		<stop  offset="0" style="stop-color:#3853A3"/>
		<stop  offset="1" style="stop-color:#6FCBDC"/>
	</linearGradient>
	<path class="st7" d="M2.5,1.7c0-0.5,0.4-0.9,0.9-0.8c0.5,0,0.9,0.4,0.8,0.9c0,0.5-0.4,0.9-0.9,0.8C2.9,2.6,2.5,2.2,2.5,1.7z"/>
	
		<linearGradient id="SVGID_9_" gradientUnits="userSpaceOnUse" x1="30.3164" y1="17.1756" x2="21.893" y2="17.5194" gradientTransform="matrix(-0.2851 0.9585 -0.9585 -0.2851 35.3945 -13.0263)">
		<stop  offset="0" style="stop-color:#3853A3"/>
		<stop  offset="1" style="stop-color:#6FCBDC"/>
	</linearGradient>
	<path class="st8" d="M11.8,4.8c0.3,0,0.6,0.3,0.6,0.6C12.3,5.7,12,6,11.7,6c-0.3,0-0.6-0.3-0.6-0.6C11.2,5.1,11.4,4.8,11.8,4.8z"/>
	
		<linearGradient id="SVGID_10_" gradientUnits="userSpaceOnUse" x1="30.2831" y1="16.3602" x2="21.8598" y2="16.704" gradientTransform="matrix(-0.2851 0.9585 -0.9585 -0.2851 35.3945 -13.0263)">
		<stop  offset="0" style="stop-color:#3853A3"/>
		<stop  offset="1" style="stop-color:#6FCBDC"/>
	</linearGradient>
	<path class="st9" d="M11.7,8.3c0.3,0,0.6,0.3,0.6,0.6c0,0.3-0.3,0.6-0.6,0.6c-0.3,0-0.6-0.3-0.6-0.6C11.1,8.5,11.4,8.3,11.7,8.3z"
		/>
	
		<linearGradient id="SVGID_11_" gradientUnits="userSpaceOnUse" x1="23.0079" y1="11.6759" x2="10.2075" y2="12.1984" gradientTransform="matrix(0.9585 0.2851 -0.2851 0.9585 -4.2039 -15.3524)">
		<stop  offset="0" style="stop-color:#3853A3"/>
		<stop  offset="1" style="stop-color:#6FCBDC"/>
	</linearGradient>
	<path class="st10" d="M9.7,1.3c0-0.4,0.3-0.6,0.7-0.6C10.7,0.7,11,1,11,1.4C11,1.7,10.7,2,10.3,2C10,2,9.7,1.7,9.7,1.3z"/>
	
		<linearGradient id="SVGID_12_" gradientUnits="userSpaceOnUse" x1="30.2389" y1="15.2781" x2="21.8156" y2="15.6219" gradientTransform="matrix(-0.2851 0.9585 -0.9585 -0.2851 35.3945 -13.0263)">
		<stop  offset="0" style="stop-color:#3853A3"/>
		<stop  offset="1" style="stop-color:#6FCBDC"/>
	</linearGradient>
	<path class="st11" d="M13.3,6.5c0.2,0,0.4,0.2,0.4,0.4c0,0.2-0.2,0.4-0.4,0.4c-0.2,0-0.4-0.2-0.4-0.4C12.9,6.7,13.1,6.5,13.3,6.5z"
		/>
	
		<linearGradient id="SVGID_13_" gradientUnits="userSpaceOnUse" x1="30.3137" y1="17.1109" x2="21.8904" y2="17.4547" gradientTransform="matrix(-0.2851 0.9585 -0.9585 -0.2851 35.3945 -13.0263)">
		<stop  offset="0" style="stop-color:#3853A3"/>
		<stop  offset="1" style="stop-color:#6FCBDC"/>
	</linearGradient>
	<path class="st12" d="M12.2,3.5c0.2,0,0.4,0.2,0.4,0.4c0,0.2-0.2,0.4-0.4,0.4c-0.2,0-0.4-0.2-0.4-0.4C11.8,3.6,12,3.5,12.2,3.5z"/>
	
		<linearGradient id="SVGID_14_" gradientUnits="userSpaceOnUse" x1="30.1834" y1="13.9187" x2="21.7601" y2="14.2626" gradientTransform="matrix(-0.2851 0.9585 -0.9585 -0.2851 35.3945 -13.0263)">
		<stop  offset="0" style="stop-color:#3853A3"/>
		<stop  offset="1" style="stop-color:#6FCBDC"/>
	</linearGradient>
	<path class="st13" d="M15.3,4.4c0.2,0,0.4,0.2,0.4,0.4c0,0.2-0.2,0.4-0.4,0.4c-0.2,0-0.4-0.2-0.4-0.4C14.8,4.5,15,4.4,15.3,4.4z"/>
	
		<linearGradient id="SVGID_15_" gradientUnits="userSpaceOnUse" x1="22.9628" y1="10.5706" x2="10.1624" y2="11.0931" gradientTransform="matrix(0.9585 0.2851 -0.2851 0.9585 -4.2039 -15.3524)">
		<stop  offset="0" style="stop-color:#3853A3"/>
		<stop  offset="1" style="stop-color:#6FCBDC"/>
	</linearGradient>
	<path class="st14" d="M13.5,1.1c0-0.4,0.3-0.6,0.7-0.6c0.4,0,0.6,0.3,0.6,0.7c0,0.4-0.3,0.6-0.7,0.6C13.7,1.8,13.5,1.5,13.5,1.1z"
		/>
	
		<linearGradient id="SVGID_16_" gradientUnits="userSpaceOnUse" x1="23.2089" y1="16.6007" x2="10.4085" y2="17.1232" gradientTransform="matrix(0.9585 0.2851 -0.2851 0.9585 -4.2039 -15.3524)">
		<stop  offset="0" style="stop-color:#3853A3"/>
		<stop  offset="1" style="stop-color:#6FCBDC"/>
	</linearGradient>
	<path class="st15" d="M5.2,5.3c0-0.4,0.3-0.6,0.7-0.6c0.4,0,0.6,0.3,0.6,0.7c0,0.4-0.3,0.6-0.7,0.6C5.4,5.9,5.2,5.6,5.2,5.3z"/>
	
		<linearGradient id="SVGID_17_" gradientUnits="userSpaceOnUse" x1="23.143" y1="14.9838" x2="10.3425" y2="15.5063" gradientTransform="matrix(0.9585 0.2851 -0.2851 0.9585 -4.2039 -15.3524)">
		<stop  offset="0" style="stop-color:#3853A3"/>
		<stop  offset="1" style="stop-color:#6FCBDC"/>
	</linearGradient>
	<path class="st16" d="M1.8,2.7c0-0.4,0.3-0.6,0.7-0.6c0.4,0,0.6,0.3,0.6,0.7c0,0.4-0.3,0.6-0.7,0.6C2.1,3.4,1.8,3.1,1.8,2.7z"/>
	
		<linearGradient id="SVGID_18_" gradientUnits="userSpaceOnUse" x1="23.0913" y1="13.7185" x2="10.2909" y2="14.2409" gradientTransform="matrix(0.9585 0.2851 -0.2851 0.9585 -4.2039 -15.3524)">
		<stop  offset="0" style="stop-color:#3853A3"/>
		<stop  offset="1" style="stop-color:#6FCBDC"/>
	</linearGradient>
	<path class="st17" d="M6.3,2.6c0-0.4,0.3-0.6,0.7-0.6c0.4,0,0.6,0.3,0.6,0.7c0,0.4-0.3,0.6-0.7,0.6C6.5,3.2,6.3,2.9,6.3,2.6z"/>
	
		<linearGradient id="SVGID_19_" gradientUnits="userSpaceOnUse" x1="23.1277" y1="14.61" x2="10.3273" y2="15.1324" gradientTransform="matrix(0.9585 0.2851 -0.2851 0.9585 -4.2039 -15.3524)">
		<stop  offset="0" style="stop-color:#3853A3"/>
		<stop  offset="1" style="stop-color:#6FCBDC"/>
	</linearGradient>
	<path class="st18" d="M12.1,5c0-0.4,0.3-0.6,0.7-0.6c0.4,0,0.6,0.3,0.6,0.7c0,0.4-0.3,0.6-0.7,0.6C12.4,5.6,12.1,5.3,12.1,5z"/>
	
		<linearGradient id="SVGID_20_" gradientUnits="userSpaceOnUse" x1="23.2317" y1="17.1582" x2="10.4313" y2="17.6807" gradientTransform="matrix(0.9585 0.2851 -0.2851 0.9585 -4.2039 -15.3524)">
		<stop  offset="0" style="stop-color:#3853A3"/>
		<stop  offset="1" style="stop-color:#6FCBDC"/>
	</linearGradient>
	<path class="st19" d="M11.6,7.5c0-0.4,0.3-0.6,0.7-0.6c0.4,0,0.6,0.3,0.6,0.7c0,0.4-0.3,0.6-0.7,0.6C11.9,8.1,11.6,7.8,11.6,7.5z"
		/>
	
		<linearGradient id="SVGID_21_" gradientUnits="userSpaceOnUse" x1="23.0446" y1="12.5744" x2="10.2442" y2="13.0969" gradientTransform="matrix(0.9585 0.2851 -0.2851 0.9585 -4.2039 -15.3524)">
		<stop  offset="0" style="stop-color:#3853A3"/>
		<stop  offset="1" style="stop-color:#6FCBDC"/>
	</linearGradient>
	<path class="st20" d="M4.9,1c0-0.4,0.3-0.6,0.7-0.6c0.4,0,0.6,0.3,0.6,0.7c0,0.4-0.3,0.6-0.7,0.6C5.1,1.7,4.8,1.4,4.9,1z"/>
	
		<linearGradient id="SVGID_22_" gradientUnits="userSpaceOnUse" x1="30.271" y1="16.0635" x2="21.8477" y2="16.4073" gradientTransform="matrix(-0.2851 0.9585 -0.9585 -0.2851 35.3945 -13.0263)">
		<stop  offset="0" style="stop-color:#3853A3"/>
		<stop  offset="1" style="stop-color:#6FCBDC"/>
	</linearGradient>
	<path class="st21" d="M12.3,7.5c0.2,0,0.3,0.1,0.3,0.3c0,0.2-0.1,0.3-0.3,0.3C12.1,8,12,7.9,12,7.7C12,7.6,12.1,7.4,12.3,7.5z"/>
	
		<linearGradient id="SVGID_23_" gradientUnits="userSpaceOnUse" x1="22.9786" y1="10.9579" x2="10.1782" y2="11.4803" gradientTransform="matrix(0.9585 0.2851 -0.2851 0.9585 -4.2039 -15.3524)">
		<stop  offset="0" style="stop-color:#3853A3"/>
		<stop  offset="1" style="stop-color:#6FCBDC"/>
	</linearGradient>
	<path class="st22" d="M8.2,0.1c0-0.2,0.2-0.4,0.5-0.4c0.2,0,0.4,0.2,0.4,0.5c0,0.2-0.2,0.4-0.5,0.4C8.3,0.6,8.2,0.4,8.2,0.1z"/>
	
		<linearGradient id="SVGID_24_" gradientUnits="userSpaceOnUse" x1="30.3539" y1="18.0948" x2="21.9306" y2="18.4386" gradientTransform="matrix(-0.2851 0.9585 -0.9585 -0.2851 35.3945 -13.0263)">
		<stop  offset="0" style="stop-color:#3853A3"/>
		<stop  offset="1" style="stop-color:#6FCBDC"/>
	</linearGradient>
	<path class="st23" d="M11.3,3.1c0.2,0,0.3,0.1,0.3,0.3c0,0.2-0.1,0.3-0.3,0.3c-0.2,0-0.3-0.1-0.3-0.3C11,3.3,11.1,3.1,11.3,3.1z"/>
	
		<linearGradient id="SVGID_25_" gradientUnits="userSpaceOnUse" x1="30.2633" y1="15.8744" x2="21.8399" y2="16.2183" gradientTransform="matrix(-0.2851 0.9585 -0.9585 -0.2851 35.3945 -13.0263)">
		<stop  offset="0" style="stop-color:#3853A3"/>
		<stop  offset="1" style="stop-color:#6FCBDC"/>
	</linearGradient>
	<path class="st24" d="M13.5,3.7c0.2,0,0.3,0.1,0.3,0.3c0,0.2-0.1,0.3-0.3,0.3c-0.2,0-0.3-0.1-0.3-0.3C13.2,3.8,13.3,3.7,13.5,3.7z"
		/>
	
		<linearGradient id="SVGID_26_" gradientUnits="userSpaceOnUse" x1="23.0046" y1="11.5953" x2="10.2042" y2="12.1178" gradientTransform="matrix(0.9585 0.2851 -0.2851 0.9585 -4.2039 -15.3524)">
		<stop  offset="0" style="stop-color:#3853A3"/>
		<stop  offset="1" style="stop-color:#6FCBDC"/>
	</linearGradient>
	<path class="st25" d="M12.5,1.9c0-0.2,0.2-0.4,0.5-0.4c0.2,0,0.4,0.2,0.4,0.5c0,0.2-0.2,0.4-0.5,0.4C12.7,2.4,12.5,2.2,12.5,1.9z"
		/>
	
		<linearGradient id="SVGID_27_" gradientUnits="userSpaceOnUse" x1="30.2646" y1="15.9068" x2="21.8413" y2="16.2506" gradientTransform="matrix(-0.2851 0.9585 -0.9585 -0.2851 35.3945 -13.0263)">
		<stop  offset="0" style="stop-color:#3853A3"/>
		<stop  offset="1" style="stop-color:#6FCBDC"/>
	</linearGradient>
	<path class="st26" d="M11.6,10.8c0.2,0,0.3,0.1,0.3,0.3c0,0.2-0.1,0.3-0.3,0.3c-0.2,0-0.3-0.1-0.3-0.3
		C11.3,10.9,11.5,10.8,11.6,10.8z"/>
	
		<linearGradient id="SVGID_28_" gradientUnits="userSpaceOnUse" x1="30.158" y1="13.2944" x2="21.7346" y2="13.6382" gradientTransform="matrix(-0.2851 0.9585 -0.9585 -0.2851 35.3945 -13.0263)">
		<stop  offset="0" style="stop-color:#3853A3"/>
		<stop  offset="1" style="stop-color:#6FCBDC"/>
	</linearGradient>
	<path class="st27" d="M14.6,9.6c0.2,0,0.3,0.1,0.3,0.3c0,0.2-0.1,0.3-0.3,0.3c-0.2,0-0.3-0.1-0.3-0.3C14.3,9.8,14.4,9.6,14.6,9.6z"
		/>
	
		<linearGradient id="SVGID_29_" gradientUnits="userSpaceOnUse" x1="30.2116" y1="14.6078" x2="21.7882" y2="14.9516" gradientTransform="matrix(-0.2851 0.9585 -0.9585 -0.2851 35.3945 -13.0263)">
		<stop  offset="0" style="stop-color:#3853A3"/>
		<stop  offset="1" style="stop-color:#6FCBDC"/>
	</linearGradient>
	<path class="st28" d="M13.7,7.8C13.9,7.8,14,8,14,8.1c0,0.2-0.1,0.3-0.3,0.3c-0.2,0-0.3-0.1-0.3-0.3C13.4,7.9,13.6,7.8,13.7,7.8z"
		/>
	
		<linearGradient id="SVGID_30_" gradientUnits="userSpaceOnUse" x1="30.178" y1="13.7856" x2="21.7547" y2="14.1294" gradientTransform="matrix(-0.2851 0.9585 -0.9585 -0.2851 35.3945 -13.0263)">
		<stop  offset="0" style="stop-color:#3853A3"/>
		<stop  offset="1" style="stop-color:#6FCBDC"/>
	</linearGradient>
	<path class="st29" d="M13.7,11.3c0.2,0,0.3,0.1,0.3,0.3c0,0.2-0.1,0.3-0.3,0.3c-0.2,0-0.3-0.1-0.3-0.3
		C13.4,11.5,13.5,11.3,13.7,11.3z"/>
	
		<linearGradient id="SVGID_31_" gradientUnits="userSpaceOnUse" x1="23.0976" y1="13.8738" x2="10.2972" y2="14.3963" gradientTransform="matrix(0.9585 0.2851 -0.2851 0.9585 -4.2039 -15.3524)">
		<stop  offset="0" style="stop-color:#3853A3"/>
		<stop  offset="1" style="stop-color:#6FCBDC"/>
	</linearGradient>
	<path class="st30" d="M5.3,2.4C5.3,2.2,5.5,2,5.8,2C6,2,6.2,2.2,6.2,2.5c0,0.2-0.2,0.4-0.5,0.4C5.5,2.9,5.3,2.7,5.3,2.4z"/>
	
		<linearGradient id="SVGID_32_" gradientUnits="userSpaceOnUse" x1="23.1791" y1="15.8695" x2="10.3787" y2="16.392" gradientTransform="matrix(0.9585 0.2851 -0.2851 0.9585 -4.2039 -15.3524)">
		<stop  offset="0" style="stop-color:#3853A3"/>
		<stop  offset="1" style="stop-color:#6FCBDC"/>
	</linearGradient>
	<path class="st31" d="M2.8,3.9c0-0.2,0.2-0.4,0.5-0.4c0.2,0,0.4,0.2,0.4,0.5c0,0.2-0.2,0.4-0.5,0.4C3,4.3,2.8,4.1,2.8,3.9z"/>
	
		<linearGradient id="SVGID_33_" gradientUnits="userSpaceOnUse" x1="23.2324" y1="17.1762" x2="10.432" y2="17.6987" gradientTransform="matrix(0.9585 0.2851 -0.2851 0.9585 -4.2039 -15.3524)">
		<stop  offset="0" style="stop-color:#3853A3"/>
		<stop  offset="1" style="stop-color:#6FCBDC"/>
	</linearGradient>
	<path class="st32" d="M3.7,5.4C3.7,5.2,3.9,5,4.2,5c0.2,0,0.4,0.2,0.4,0.5c0,0.2-0.2,0.4-0.5,0.4C3.9,5.9,3.7,5.7,3.7,5.4z"/>
	
		<linearGradient id="SVGID_34_" gradientUnits="userSpaceOnUse" x1="23.1796" y1="15.8808" x2="10.3791" y2="16.4033" gradientTransform="matrix(0.9585 0.2851 -0.2851 0.9585 -4.2039 -15.3524)">
		<stop  offset="0" style="stop-color:#3853A3"/>
		<stop  offset="1" style="stop-color:#6FCBDC"/>
	</linearGradient>
	<path class="st33" d="M8,5.2c0-0.2,0.2-0.4,0.5-0.4c0.2,0,0.4,0.2,0.4,0.5c0,0.2-0.2,0.4-0.5,0.4C8.2,5.6,8,5.4,8,5.2z"/>
	
		<linearGradient id="SVGID_35_" gradientUnits="userSpaceOnUse" x1="23.1302" y1="14.6714" x2="10.3298" y2="15.1939" gradientTransform="matrix(0.9585 0.2851 -0.2851 0.9585 -4.2039 -15.3524)">
		<stop  offset="0" style="stop-color:#3853A3"/>
		<stop  offset="1" style="stop-color:#6FCBDC"/>
	</linearGradient>
	<path class="st34" d="M9.8,4.4C9.8,4.2,10,4,10.3,4c0.2,0,0.4,0.2,0.4,0.5c0,0.2-0.2,0.4-0.5,0.4C10,4.9,9.8,4.7,9.8,4.4z"/>
	
		<linearGradient id="SVGID_36_" gradientUnits="userSpaceOnUse" x1="23.0297" y1="12.2093" x2="10.2293" y2="12.7317" gradientTransform="matrix(0.9585 0.2851 -0.2851 0.9585 -4.2039 -15.3524)">
		<stop  offset="0" style="stop-color:#3853A3"/>
		<stop  offset="1" style="stop-color:#6FCBDC"/>
	</linearGradient>
	<path class="st35" d="M7.3,1.2c0-0.2,0.2-0.4,0.5-0.4C8,0.8,8.2,1,8.2,1.2c0,0.2-0.2,0.4-0.5,0.4C7.5,1.7,7.3,1.5,7.3,1.2z"/>
	
		<linearGradient id="SVGID_37_" gradientUnits="userSpaceOnUse" x1="22.9848" y1="11.1101" x2="10.1844" y2="11.6326" gradientTransform="matrix(0.9585 0.2851 -0.2851 0.9585 -4.2039 -15.3524)">
		<stop  offset="0" style="stop-color:#3853A3"/>
		<stop  offset="1" style="stop-color:#6FCBDC"/>
	</linearGradient>
	<path class="st36" d="M11.2,1.1c0-0.2,0.2-0.4,0.5-0.4c0.2,0,0.4,0.2,0.4,0.5c0,0.2-0.2,0.4-0.5,0.4C11.4,1.5,11.2,1.3,11.2,1.1z"
		/>
	
		<linearGradient id="SVGID_38_" gradientUnits="userSpaceOnUse" x1="30.3008" y1="16.794" x2="21.8775" y2="17.1378" gradientTransform="matrix(-0.2851 0.9585 -0.9585 -0.2851 35.3945 -13.0263)">
		<stop  offset="0" style="stop-color:#3853A3"/>
		<stop  offset="1" style="stop-color:#6FCBDC"/>
	</linearGradient>
	<path class="st37" d="M11,9.7c0.2,0,0.3,0.1,0.3,0.3c0,0.2-0.1,0.3-0.3,0.3c-0.2,0-0.3-0.1-0.3-0.3C10.7,9.8,10.8,9.7,11,9.7z"/>
	
		<linearGradient id="SVGID_39_" gradientUnits="userSpaceOnUse" x1="23.1084" y1="14.1381" x2="10.308" y2="14.6606" gradientTransform="matrix(0.9585 0.2851 -0.2851 0.9585 -4.2039 -15.3524)">
		<stop  offset="0" style="stop-color:#3853A3"/>
		<stop  offset="1" style="stop-color:#6FCBDC"/>
	</linearGradient>
	<path class="st38" d="M10.9,4.1c0-0.2,0.2-0.4,0.5-0.4c0.2,0,0.4,0.2,0.4,0.5c0,0.2-0.2,0.4-0.5,0.4C11.1,4.6,10.9,4.4,10.9,4.1z"
		/>
	
		<linearGradient id="SVGID_40_" gradientUnits="userSpaceOnUse" x1="23.0809" y1="13.4633" x2="10.2805" y2="13.9858" gradientTransform="matrix(0.9585 0.2851 -0.2851 0.9585 -4.2039 -15.3524)">
		<stop  offset="0" style="stop-color:#3853A3"/>
		<stop  offset="1" style="stop-color:#6FCBDC"/>
	</linearGradient>
	<path class="st39" d="M10.6,3.4c0-0.4,0.3-0.6,0.7-0.6c0.4,0,0.6,0.3,0.6,0.7c0,0.4-0.3,0.6-0.7,0.6C10.9,4,10.6,3.7,10.6,3.4z"/>
	<g>
		
			<linearGradient id="SVGID_41_" gradientUnits="userSpaceOnUse" x1="65.866" y1="33.0928" x2="55.8833" y2="33.5003" gradientTransform="matrix(0.7684 0.6399 -0.6399 0.7684 -18.5355 -54.7916)">
			<stop  offset="0" style="stop-color:#3853A3"/>
			<stop  offset="1" style="stop-color:#6FCBDC"/>
		</linearGradient>
		<path class="st40" d="M10.3,12.9c0.8-2.4-0.4-5-2.7-6.1C5.2,5.8,2.5,6.8,1.3,9L10.3,12.9z"/>
	</g>
	<g>
		
			<linearGradient id="SVGID_42_" gradientUnits="userSpaceOnUse" x1="167.4773" y1="-23.6115" x2="157.4946" y2="-23.2041" gradientTransform="matrix(-0.7684 -0.6399 0.6399 -0.7684 144.3297 98.6949)">
			<stop  offset="0" style="stop-color:#C0272D"/>
			<stop  offset="1" style="stop-color:#EC1E27"/>
		</linearGradient>
		<path class="st41" d="M1.1,9.5c-0.8,2.4,0.4,5,2.7,6.1c2.4,1,5.1,0.1,6.3-2.1L1.1,9.5z"/>
	</g>
</g>
</svg>
